<?xml version="1.0" standalone="no"?><!DOCTYPE svg PUBLIC "-//W3C//DTD SVG 1.1//EN" "http://www.w3.org/Graphics/SVG/1.1/DTD/svg11.dtd"><svg t="1578886990190" class="icon" viewBox="0 0 1024 1024" version="1.1" xmlns="http://www.w3.org/2000/svg" p-id="3644" width="120" height="120" xmlns:xlink="http://www.w3.org/1999/xlink"><defs><style type="text/css"></style></defs><path d="M800.017067 548.864v227.259733H548.864v-73.728h171.3152V618.496h-171.349333v-226.577067h171.349333V314.709333h-171.349333v-73.728h251.221333v226.645334h-171.349333v77.1072h171.349333v4.096z m-576.034134 0v227.259733h251.153067v-73.728H303.8208V618.496h171.349333v-226.577067H303.786667V314.709333h171.349333v-73.728H223.914667v226.645334h171.349333v77.1072H223.914667v4.096z" fill="#e7ce9d" p-id="3645"></path><path d="M512 0.1024C229.444267 0.1024 0.1024 229.444267 0.1024 512c0 282.555733 229.341867 511.8976 511.8976 511.8976 282.555733 0 511.8976-229.341867 511.8976-511.8976C1023.8976 229.444267 794.555733 0.1024 512 0.1024z m0 922.077867C285.3888 922.180267 101.819733 738.645333 101.819733 512 101.819733 285.3888 285.354667 101.819733 512 101.819733c226.6112 0 410.180267 183.569067 410.180267 410.180267 0 226.6112-183.569067 410.180267-410.180267 410.180267z" fill="#e7ce9d" p-id="3646"></path></svg>