<?xml version="1.0" encoding="utf-8"?>
<!-- Generator: Adobe Illustrator 22.0.0, SVG Export Plug-In . SVG Version: 6.00 Build 0)  -->
<svg version="1.1" id="图层_1" xmlns="http://www.w3.org/2000/svg" xmlns:xlink="http://www.w3.org/1999/xlink" x="0px" y="0px"
	 viewBox="0 0 50 50" style="enable-background:new 0 0 50 50;" xml:space="preserve">
<style type="text/css">
	.st0{fill:#CDD2DC;}
</style>
<g>
	<path class="st0" d="M28.5,42.9l-4,4.1l-13-13c-3.4-3.4-5.3-8.1-5.3-13c0-10.1,8.3-18.3,18.3-18.3S42.8,10.9,42.8,21
		c0,2.8-0.6,5.3-1.8,7.8c-0.2,0.4,0,0.9,0.4,1.1c0.4,0.2,0.9,0,1.1-0.4c1.3-2.7,1.9-5.6,1.9-8.5c0-11-9-20-20-20s-20,9-20,20
		c0,5.3,2.1,10.3,5.8,14.2l13.6,13.6c0.2,0.2,0.3,0.3,0.6,0.3s0.4-0.1,0.6-0.3l4.7-4.7c0.3-0.3,0.3-0.8,0-1.2
		C29.4,42.6,28.8,42.6,28.5,42.9z"/>
	<path class="st0" d="M16.2,21.7c0,5.1,4.1,9.2,9.2,9.2s9.2-4.1,9.2-9.2s-4.1-9.2-9.2-9.2S16.2,16.6,16.2,21.7z M32.8,21.7
		c0,4.2-3.3,7.5-7.5,7.5s-7.5-3.3-7.5-7.5s3.3-7.5,7.5-7.5S32.8,17.5,32.8,21.7z M37.2,29.8c-4.6,0-8.3,3.8-8.3,8.3s3.8,8.3,8.3,8.3
		s8.3-3.8,8.3-8.3S41.8,29.8,37.2,29.8z M37.2,44.8c-3.7,0-6.7-3-6.7-6.7c0-3.7,3-6.7,6.7-6.7c3.7,0,6.7,3,6.7,6.7
		C43.8,41.8,40.9,44.8,37.2,44.8z"/>
	<path class="st0" d="M40.2,35.2c-0.3-0.3-0.8-0.3-1.2,0l-1.8,1.8l-1.8-1.8c-0.3-0.3-0.8-0.3-1.2,0c-0.3,0.3-0.3,0.8,0,1.2l1.8,1.8
		l-1.8,1.8c-0.3,0.3-0.3,0.8,0,1.2s0.8,0.3,1.2,0l1.8-1.8L39,41c0.3,0.3,0.8,0.3,1.2,0s0.3-0.8,0-1.2l-1.8-1.8l1.8-1.8
		C40.5,36,40.5,35.5,40.2,35.2z"/>
</g>
</svg>
