<?xml version="1.0" encoding="utf-8"?>
<!-- Generator: Adobe Illustrator 22.0.0, SVG Export Plug-In . SVG Version: 6.00 Build 0)  -->
<svg version="1.1" id="图层_1" xmlns="http://www.w3.org/2000/svg" xmlns:xlink="http://www.w3.org/1999/xlink" x="0px" y="0px"
	 viewBox="0 0 50 50" style="enable-background:new 0 0 50 50;" xml:space="preserve">
<style type="text/css">
	.st0{fill:#C0C3C9;}
	.st1{fill:#CDD2DC;}
</style>
<path class="st0" d="M6.7,12.6h36.6v1.7H6.7V12.6z"/>
<polygon class="st1" points="30.4,1 28.3,1 28.1,19.3 21.7,19.3 21.9,1 19.7,1 19.6,21.5 30.3,21.5 "/>
<g>
	<path class="st1" d="M40.4,32.1c-4.6,0-8.3,3.8-8.3,8.3s3.8,8.3,8.3,8.3s8.3-3.8,8.3-8.3S45,32.1,40.4,32.1z M40.3,47.1
		c-3.7,0-6.7-3-6.7-6.7s3-6.7,6.7-6.7c3.7,0,6.7,3,6.7,6.7C46.9,44.1,44,47.1,40.3,47.1z"/>
	<path class="st1" d="M43.4,37.3c-0.3-0.3-0.8-0.3-1.2,0l-1.8,1.8l-1.8-1.8c-0.3-0.3-0.8-0.3-1.2,0c-0.3,0.3-0.3,0.8,0,1.2l1.8,1.8
		l-1.8,1.8c-0.3,0.3-0.3,0.8,0,1.2s0.8,0.3,1.2,0l1.8-1.8l1.8,1.6c0.3,0.3,0.8,0.3,1.2,0s0.3-0.8,0-1.2l-1.8-1.8l1.8-1.8
		C43.7,38.1,43.7,37.6,43.4,37.3z"/>
</g>
<path class="st1" d="M30.9,42.4c-0.9,0-1.9,0-2.9,0c-7.1,0-15,0.1-16.7,0.1c-1.7,0-3.7-0.4-3.7-4.3V13.9l4.7-6.6h26.1l4.1,6.6V31
	c0.6,0.1,1.1,0.3,1.7,0.5V13.4l-4.8-7.7h-28l-5.6,7.7v24.9c0,3.9,2,6,5.5,6c1.7,0,9.7-0.1,16.6-0.2c1.2,0,2.4,0,3.5,0
	C31.3,43.5,31.1,43,30.9,42.4z"/>
<path class="st1" d="M17.8,30.5h14.5c0.4,0,0.8,0.4,0.8,0.8v0c0,0.4-0.4,0.8-0.8,0.8H17.8c-0.4,0-0.8-0.4-0.8-0.8v0
	C17,30.9,17.3,30.5,17.8,30.5z M17.2,30.8l4.2-4.2c0.3-0.3,0.8-0.3,1.1,0v0c0.3,0.3,0.3,0.8,0,1.1l-4.2,4.2c-0.3,0.3-0.8,0.3-1.1,0
	l0,0C16.9,31.6,16.9,31.1,17.2,30.8z M21.4,36.1l-4.2-4.2c-0.3-0.3-0.3-0.8,0-1.1l0,0c0.3-0.3,0.8-0.3,1.1,0l4.2,4.2
	c0.3,0.3,0.3,0.8,0,1.1h0C22.2,36.4,21.7,36.4,21.4,36.1z"/>
</svg>
