<?xml version="1.0" encoding="utf-8"?>
<!-- Generator: Adobe Illustrator 22.0.0, SVG Export Plug-In . SVG Version: 6.00 Build 0)  -->
<svg version="1.1" id="图层_1" xmlns="http://www.w3.org/2000/svg" xmlns:xlink="http://www.w3.org/1999/xlink" x="0px" y="0px"
	 viewBox="0 0 116 116" style="enable-background:new 0 0 116 116;" xml:space="preserve">
<style type="text/css">
	.st0{fill:#F0F0F0;}
	.st1{fill:#D9D9D9;}
	.st2{fill:#FFFFFF;}
	.st3{fill:#FFBE00;}
</style>
<circle class="st0" cx="58" cy="58" r="58"/>
<ellipse class="st1" cx="59" cy="95.5" rx="28" ry="4.5"/>
<rect x="30" y="20" class="st2" width="56" height="76"/>
<rect x="37" y="34" class="st1" width="36" height="6"/>
<rect x="37" y="47.5" class="st1" width="26" height="5"/>
<rect x="37" y="59.5" class="st1" width="21" height="5"/>
<rect x="37" y="71.5" class="st1" width="14" height="5"/>
<path class="st3" d="M77.3,66c-0.7,0-1.2,0.6-1.3,1.2l0,0c0,0,0,0,0,0.1L76.7,80h2.7L80,67.3c0-0.7-0.5-1.3-1.2-1.3H77.3z M78,82
	c-1.1,0-2,0.9-2,2s0.9,2,2,2l0,0c1.1,0,2-0.9,2-2l0,0C80,82.9,79.1,82,78,82L78,82L78,82z M77.7,96C66.9,95.9,58.1,87.1,58,76.3
	c0-5.4,2.1-10.5,5.8-14.4c3.7-3.8,8.7-5.9,13.9-5.9c11.1-0.1,20.2,8.9,20.3,20v0.3c0,5.2-2.1,10.3-5.9,13.9
	C88.3,93.9,83.1,96,77.7,96L77.7,96z"/>
</svg>
